<svg xmlns="http://www.w3.org/2000/svg" width="200" height="200" viewBox="0 0 48 48" fill="none">
  <!-- Dotted orbital ring -->
  <circle cx="24" cy="24" r="18" fill="none" stroke="#d4cfc3" stroke-width="1" stroke-dasharray="3 4" opacity="0.7"/>

  <!-- Stem -->
  <path d="M24 38 C24 38 24 26 24 22" stroke="#2d5a3d" stroke-width="2.5" stroke-linecap="round"/>

  <!-- Left leaf -->
  <path d="M24 26 C20 22 14 20 12 18 C14 24 18 27 24 28Z" fill="#2d5a3d"/>
  <!-- Left leaf vein -->
  <path d="M24 27 C20 24 16 22 14 20" stroke="#4a7c5c" stroke-width="0.6" fill="none" stroke-linecap="round"/>

  <!-- Right leaf -->
  <path d="M24 22 C28 18 34 16 36 14 C34 20 30 23 24 24Z" fill="#4a7c5c"/>
  <!-- Right leaf vein -->
  <path d="M24 23 C28 20 32 18 34 16" stroke="#2d5a3d" stroke-width="0.6" fill="none" stroke-linecap="round"/>

  <!-- Small top leaf bud -->
  <path d="M24 22 C23 19 22 16 24 14 C26 16 25 19 24 22Z" fill="#2d5a3d"/>

  <!-- Microbe dots orbiting -->
  <circle cx="10" cy="14" r="2.2" fill="#8b6914"/>
  <circle cx="38" cy="32" r="2.2" fill="#8b6914"/>
  <circle cx="8" cy="30" r="1.6" fill="#b8a040"/>
  <circle cx="38" cy="14" r="1.6" fill="#b8a040"/>
  <circle cx="18" cy="8" r="1.3" fill="#8b6914" opacity="0.7"/>
  <circle cx="32" cy="40" r="1.3" fill="#b8a040" opacity="0.7"/>
</svg>
